<svg xmlns="http://www.w3.org/2000/svg" xmlns:xlink="http://www.w3.org/1999/xlink" viewBox="0,0,256,256" width="24px" height="24px" fill-rule="nonzero"><g fill-opacity="0.36078" fill="#000000" fill-rule="nonzero" stroke="none" stroke-width="1" stroke-linecap="butt" stroke-linejoin="miter" stroke-miterlimit="10" stroke-dasharray="" stroke-dashoffset="0" font-family="none" font-weight="none" font-size="none" text-anchor="none" style="mix-blend-mode: normal"><g transform="scale(10.66667,10.66667)"><path d="M17.469,9.286l-2.156,-0.957c-1.657,-0.736 -2.976,-2.096 -3.683,-3.801l-0.82,-1.974c-0.152,-0.367 -0.481,-0.55 -0.81,-0.55c-0.329,0 -0.658,0.183 -0.81,0.55l-0.819,1.974c-0.708,1.704 -2.026,3.065 -3.684,3.801l-2.156,0.957c-0.708,0.314 -0.708,1.344 0,1.658l2.226,0.988c1.616,0.717 2.911,2.029 3.631,3.678l0.809,1.852c0.155,0.356 0.479,0.534 0.803,0.534c0.324,0 0.648,-0.178 0.804,-0.534l0.809,-1.852c0.72,-1.648 2.015,-2.961 3.631,-3.678l2.226,-0.988c0.707,-0.314 0.707,-1.344 -0.001,-1.658zM10,14.34c-0.949,-1.882 -2.497,-3.37 -4.408,-4.225c1.931,-0.884 3.478,-2.409 4.408,-4.335c0.93,1.926 2.477,3.451 4.408,4.334c-1.911,0.855 -3.459,2.344 -4.408,4.226z"></path><path d="M18.713,21.125l-0.247,0.565c-0.18,0.414 -0.753,0.414 -0.934,0l-0.247,-0.565c-0.44,-1.008 -1.231,-1.81 -2.219,-2.249l-0.76,-0.337c-0.411,-0.182 -0.411,-0.78 0,-0.962l0.717,-0.319c1.013,-0.45 1.819,-1.282 2.251,-2.324l0.253,-0.611c0.176,-0.426 0.765,-0.426 0.941,0l0.253,0.611c0.432,1.042 1.238,1.874 2.251,2.324l0.717,0.319c0.411,0.182 0.411,0.78 0,0.962l-0.76,0.337c-0.984,0.439 -1.776,1.241 -2.216,2.249z"></path></g></g></svg>